<svg width="30" height="30" viewBox="0 0 30 30" fill="none" xmlns="http://www.w3.org/2000/svg">
<path fill-rule="evenodd" clip-rule="evenodd" d="M0 15C0 6.717 6.716 0 14.999 0C23.286 0 30 6.717 30 15C30 23.284 23.286 30 14.999 30C6.716 30 0 23.284 0 15ZM7.69 22.169H10.906V12.498H7.69V22.169ZM9.299 11.178H9.278C8.197 11.178 7.501 10.432 7.501 9.504C7.501 8.554 8.221 7.833 9.317 7.833C10.421 7.833 11.096 8.555 11.116 9.504C11.116 10.432 10.421 11.178 9.299 11.178ZM19.287 22.169H22.502V16.623C22.502 13.65 20.915 12.269 18.798 12.269C17.091 12.269 16.332 13.206 15.902 13.865V12.498H12.689C12.729 13.403 12.689 22.169 12.689 22.169H15.902V16.768C15.902 16.477 15.922 16.191 16.004 15.986C16.238 15.408 16.768 14.806 17.657 14.806C18.822 14.806 19.287 15.695 19.287 16.994V22.169Z" fill="#ABA7A5"/>
</svg>
