<svg width="30" height="30" viewBox="0 0 30 30" fill="none" xmlns="http://www.w3.org/2000/svg">
<path fill-rule="evenodd" clip-rule="evenodd" d="M0 15C0 6.718 6.718 0 15.003 0C23.285 0 30 6.718 30 15C30 23.284 23.285 30 15.003 30C6.718 30 0 23.284 0 15ZM20.976 12.34C20.976 12.206 20.972 12.075 20.965 11.941C21.567 11.507 22.09 10.968 22.499 10.352C21.95 10.594 21.355 10.762 20.732 10.833C21.367 10.453 21.854 9.852 22.086 9.132C21.49 9.482 20.832 9.74 20.132 9.878C19.57 9.282 18.77 8.907 17.886 8.907C16.185 8.907 14.807 10.285 14.807 11.984C14.807 12.226 14.836 12.46 14.887 12.685C12.328 12.556 10.061 11.331 8.543 9.469C8.277 9.923 8.129 10.453 8.129 11.015C8.129 12.083 8.67 13.026 9.497 13.578C8.992 13.559 8.516 13.422 8.1 13.193V13.231C8.1 14.722 9.166 15.966 10.572 16.249C10.313 16.319 10.042 16.357 9.759 16.357C9.564 16.357 9.371 16.334 9.183 16.303C9.575 17.524 10.709 18.415 12.056 18.439C11.004 19.264 9.678 19.755 8.236 19.755C7.987 19.755 7.745 19.739 7.502 19.712C8.864 20.585 10.479 21.096 12.218 21.096C17.879 21.096 20.976 16.405 20.976 12.34Z" fill="#ABA7A5"/>
</svg>
