<svg width="81" height="51" xmlns="http://www.w3.org/2000/svg"><g fill="#333"><path d="M8.6 13.3c-.3.6-.8 1-1.3 1.2-.6.3-1.2.4-1.9.4-.8 0-1.5-.2-2.1-.5-.6-.3-1.1-.7-1.5-1.2-.4-.5-.7-1.1-.9-1.8-.1-.7-.2-1.4-.2-2.2 0-.7.1-1.4.3-2.1.2-.7.5-1.2.9-1.8.4-.5.9-.9 1.5-1.2.6-.3 1.3-.5 2.1-.5.6 0 1.2.1 1.8.4.6.3 1 .7 1.3 1.2V0h2.9v14.6H8.7l-.1-1.3zM8.5 8c-.1-.4-.2-.7-.4-1-.2-.3-.5-.6-.8-.8-.3-.2-.7-.3-1.2-.3-.4 0-.9.1-1.2.3-.3.2-.6.5-.8.8-.2.3-.3.7-.4 1.1-.1.4-.1.8-.1 1.2 0 .4 0 .8.1 1.2.1.5.3.8.5 1.2.2.4.5.6.8.8.3.2.7.3 1.2.3s.9-.1 1.2-.3c.3-.2.6-.4.8-.8.2-.3.3-.7.4-1.1.1-.4.1-.8.1-1.3-.1-.4-.1-.9-.2-1.3zm4.3-5.6V0h2.9v2.4h-2.9zM15.7 4v10.6h-2.9V4h2.9zm11.4 11.4c-.1.5-.4 1.1-.7 1.5-.4.5-.9.9-1.7 1.2-.7.3-1.7.5-2.9.5-.5 0-1-.1-1.6-.2-.6-.1-1-.3-1.5-.6-.4-.3-.8-.6-1.1-1.1-.3-.4-.5-.9-.5-1.5H20c.1.5.4.9.8 1.1.4.2.9.3 1.4.3.8 0 1.4-.2 1.8-.7.4-.5.6-1.1.5-1.9v-1.4c-.3.6-.8 1-1.3 1.2-.6.3-1.2.4-1.8.4-.8 0-1.5-.1-2-.4-.5-.3-1-.7-1.4-1.1-.4-.5-.6-1.1-.8-1.7-.2-.6-.5-1.3-.5-2s.1-1.3.3-2c.2-.6.5-1.2.9-1.7s.9-.9 1.4-1.2c.5-.3 1.2-.4 2-.4.7 0 1.3.1 1.8.4.5.3 1 .7 1.3 1.3V4h2.8v10c.1.4 0 .9-.1 1.4zm-4-3.5c.3-.2.6-.4.8-.7.2-.3.4-.6.5-.9.1-.3.2-.7.2-1.1 0-.4 0-.9-.1-1.2-.1-.4-.2-.7-.4-1-.2-.3-.4-.5-.8-.7-.4-.2-.8-.4-1.3-.4-.4 0-.8.1-1.1.2-.3.2-.5.4-.7.7-.2.3-.3.6-.4 1-.1.4-.1.7-.1 1.1 0 .4 0 .8.1 1.1.1.3.2.7.4 1 .2.3.4.5.7.7.3.2.7.3 1.1.3.4.1.8.1 1.1-.1zm5.7-9.5V0h2.9v2.4h-2.9zM31.7 4v10.6h-2.9V4h2.9zm7.2 0v2h-2.1v5.2c0 .5.1.8.2 1 .1.2.5.2 1 .2h.5c.2 0 .3 0 .4-.1v2.3c-.2 0-.5.1-.8.1h-.9c-.5 0-.9 0-1.3-.1s-.8-.2-1.1-.4c-.3-.2-.5-.4-.7-.8-.2-.4-.3-.8-.3-1.3V6H32V4h1.8V.9h2.9V4h2.2zm.8 1.6c.3-.5.7-.8 1.1-1.1.4-.3 1-.5 1.6-.6.6-.1 1.2-.2 1.8-.2.5 0 1.1 0 1.6.1s1 .2 1.5.4.8.5 1.1.9c.3.4.4.9.4 1.5v5.5c0 .5 0 .9.1 1.4.1.5.2.8.3 1h-3c-.1-.2-.1-.3-.1-.5s-.1-.3-.1-.5c-.5.5-1 .8-1.6 1-.6.2-1.3.3-1.9.3-.5 0-1-.1-1.4-.2-.4-.1-.8-.3-1.1-.6-.3-.3-.6-.6-.8-1-.2-.4-.3-.9-.3-1.4 0-.6.1-1.1.3-1.5.2-.4.5-.7.8-.9.3-.2.7-.4 1.1-.5.4-.1.9-.2 1.3-.3.4-.1.9-.1 1.3-.2.4 0 .8-.1 1.1-.2.3-.1.6-.2.8-.4.2-.2.3-.4.3-.7 0-.3-.1-.6-.2-.7-.1-.2-.2-.3-.4-.4-.2-.1-.3 0-.5 0s-.5-.1-.7-.1c-.6 0-1 .1-1.4.4-.3.2-.5.7-.6 1.2h-2.9c.1-.7.2-1.3.5-1.7zm5.8 4.1c-.2.1-.4.1-.6.2-.2.1-.4.1-.7.1-.2 0-.5.1-.7.1-.2 0-.4.1-.6.2l-.6.3c-.2.1-.3.3-.4.4-.1.2-.1.4-.1.7 0 .3 0 .5.1.7.1.2.2.3.4.4.2.1.4.2.6.2.2 0 .4.1.7.1.6 0 1-.1 1.3-.3.3-.2.5-.4.7-.7.2-.3.2-.5.3-.8 0-.3.1-.5.1-.7V9.5c-.2.1-.3.1-.5.2zM53.2 0v14.6h-2.9V0zM3.9 22v2c.1-.3.3-.6.6-.9.2-.3.5-.5.8-.7.3-.2.6-.4 1-.5.3-.1.7-.2 1.1-.2.2 0 .4 0 .6.1v2.7c-.1 0-.3-.1-.5-.1h-.6c-.5 0-1 .1-1.4.3-.4.2-.7.4-.9.7-.2.3-.4.7-.5 1.1 0 .4-.1.9-.1 1.4v4.8H1.1V22h2.8z"/><path d="M10.9 30.1c.4.4 1.1.6 1.9.6.6 0 1.1-.1 1.5-.4.4-.3.7-.6.8-.9h2.6c-.4 1.3-1 2.2-1.9 2.7-.8.5-1.9.8-3.1.8-.8 0-1.6-.1-2.3-.4-.7-.3-1.2-.6-1.7-1.1-.5-.5-.8-1.1-1.1-1.8-.3-.7-.4-1.4-.4-2.3 0-.8.1-1.5.4-2.2.3-.7.6-1.3 1.1-1.8.5-.5 1-.9 1.7-1.2.7-.3 1.4-.4 2.2-.4.9 0 1.7.2 2.4.5s1.2.8 1.6 1.4c.4.6.7 1.3.9 2 .2.8.3 1.5.2 2.4h-7.6c.1 1 .4 1.7.8 2.1zm3.3-5.6c-.3-.4-.9-.6-1.6-.6-.5 0-.9.1-1.2.2-.3.1-.6.4-.7.6-.2.2-.3.5-.4.7-.1.2-.1.5-.1.7h4.7c-.1-.6-.4-1.2-.7-1.6zm7.2-2.5v1.4c.4-.6.8-1 1.4-1.2.6-.2 1.1-.4 1.8-.4.8 0 1.6.2 2.2.5.6.3 1.1.7 1.5 1.2.4.5.7 1.1.9 1.8.2.7.3 1.4.3 2.2 0 .7-.1 1.4-.3 2-.2.6-.5 1.2-.9 1.7s-.9.9-1.5 1.2c-.6.3-1.3.5-2 .5s-1.3-.1-1.8-.4c-.6-.3-1-.7-1.4-1.2v5h-2.9V22h2.7zm3.8 8.4c.3-.2.6-.4.8-.7.2-.3.3-.7.4-1.1.1-.4.1-.8.1-1.2 0-.4 0-.8-.1-1.3s-.2-.8-.4-1.1c-.2-.3-.5-.6-.8-.8-.3-.2-.7-.3-1.2-.3s-.9.1-1.2.3c-.3.2-.6.5-.8.8-.2.3-.3.7-.4 1.1-.1.4-.1.8-.1 1.3 0 .4 0 .8.1 1.2.1.4.2.8.4 1.1.2.3.5.6.8.7.3.1.7.3 1.2.3s.9-.1 1.2-.3zm5.1-5.4c.3-.7.6-1.3 1.1-1.8.5-.5 1.1-.9 1.7-1.1.7-.3 1.4-.4 2.3-.4.8 0 1.6.1 2.3.4.7.3 1.3.6 1.7 1.1.5.5.8 1.1 1.1 1.8.3.7.4 1.5.4 2.3 0 .8-.1 1.6-.4 2.3-.3.7-.6 1.3-1.1 1.8-.5.5-1.1.9-1.7 1.1-.6.2-1.4.4-2.3.4-.8 0-1.6-.1-2.3-.4-.7-.3-1.2-.6-1.7-1.1-.5-.5-.8-1.1-1.1-1.8-.3-.7-.4-1.4-.4-2.3 0-.8.1-1.6.4-2.3zm2.6 3.6c.1.4.2.8.4 1.1.2.3.5.6.8.8.3.2.7.3 1.2.3s.9-.1 1.2-.3c.3-.2.6-.4.8-.8.2-.3.3-.7.4-1.1.1-.4.1-.8.1-1.2 0-.4 0-.8-.1-1.2-.1-.4-.2-.8-.4-1.1-.2-.3-.5-.6-.8-.8-.3-.2-.7-.3-1.2-.3s-.9.1-1.2.3c-.3.2-.6.5-.8.8-.2.3-.3.7-.4 1.1-.1.4-.1.8-.1 1.2 0 .4.1.8.1 1.2zM44.6 22v2c.1-.3.3-.6.6-.9.2-.3.5-.5.8-.7.3-.2.6-.4 1-.5.3-.1.7-.2 1.1-.2.2 0 .4 0 .6.1v2.7c-.1 0-.3-.1-.5-.1h-.6c-.5 0-1 .1-1.4.3-.4.2-.7.4-.9.7-.2.3-.4.7-.5 1.1-.1.4-.1.9-.1 1.3v4.8h-2.9V22h2.8z"/><path d="M54.7 22v2h-2.1v5.2c0 .5.1.8.2 1 .1.2.5.2 1 .2h.5c.2 0 .3 0 .4-.1v2.3c-.2 0-.5.1-.8.1H53c-.5 0-.9 0-1.3-.1s-.8-.2-1.1-.4c-.3-.2-.5-.4-.7-.8-.2-.3-.3-.8-.3-1.3V24h-1.8v-2h1.8v-3.2h2.9V22h2.2zm.6-1.6V18h2.9v2.4h-2.9zm2.9 1.6v10.6h-2.9V22h2.9zm4.1 0v1.5h.1c.4-.6.8-1.1 1.4-1.3.6-.3 1.2-.4 1.8-.4.8 0 1.4.1 1.9.3.5.2.9.5 1.2.9.3.4.5.8.6 1.4.1.5.2 1.1.2 1.8v6.5h-2.9v-6c0-.9-.1-1.5-.4-2-.3-.4-.8-.6-1.5-.6-.8 0-1.4.2-1.7.7-.4.5-.5 1.2-.5 2.3v5.6h-2.9V22h2.7zm18.5 11.4c-.1.5-.4 1.1-.7 1.5-.3.4-.9.9-1.7 1.2-.7.3-1.7.5-2.9.5-.5 0-1-.1-1.6-.2-.5-.1-1-.3-1.5-.6s-.8-.6-1.1-1.1c-.3-.5-.5-.9-.5-1.5h2.9c.1.5.4.9.8 1.1.4.2.9.3 1.4.3.8 0 1.4-.2 1.8-.7.4-.5.6-1.1.5-1.9v-1.4c-.3.6-.8 1-1.3 1.2-.6.3-1.2.4-1.8.4-.8 0-1.5-.1-2.1-.4-.6-.3-1-.7-1.4-1.1-.4-.4-.6-1.1-.8-1.7-.2-.6-.3-1.3-.3-2.1 0-.7.1-1.3.3-2 .2-.7.5-1.2.9-1.7s.9-.9 1.4-1.2c.5-.3 1.2-.4 2-.4.7 0 1.3.1 1.8.4.5.3 1 .7 1.3 1.3V22H81v10c0 .4-.1.9-.2 1.4zm-4-3.5c.3-.2.6-.4.8-.7.2-.3.4-.6.5-.9.1-.3.2-.7.2-1.1 0-.4 0-.9-.1-1.2-.1-.3-.2-.7-.4-1-.2-.3-.4-.5-.8-.7-.4-.2-.7-.3-1.2-.3-.4 0-.8.1-1.1.2-.3.2-.5.4-.7.7-.2.3-.3.6-.4 1-.1.4-.1.7-.1 1.1 0 .4 0 .8.1 1.1.1.4.2.7.4 1 .2.3.4.5.7.7.3.2.7.3 1.1.3.3 0 .7 0 1-.2zM4.2 48.1c.4.4 1.1.6 1.9.6.6 0 1.1-.1 1.5-.4.4-.3.7-.6.8-.9H11c-.4 1.3-1 2.2-1.9 2.7-.8.5-1.9.8-3.1.8-.8 0-1.6-.1-2.3-.4-.7-.3-1.2-.6-1.7-1.1-.5-.5-.8-1.1-1.1-1.8-.3-.7-.4-1.4-.4-2.3 0-.8.1-1.5.4-2.2.3-.7.6-1.3 1.1-1.8.5-.5 1-.9 1.7-1.2.7-.3 1.4-.4 2.2-.4.9 0 1.7.2 2.4.5s1.2.8 1.6 1.4c.4.6.7 1.3.9 2 .2.7.3 1.5.2 2.4H3.5c0 1 .3 1.7.7 2.1zm3.3-5.6c-.3-.4-.9-.6-1.6-.6-.5 0-.9.1-1.2.2-.3.2-.6.4-.7.6-.1.2-.3.5-.4.7-.1.2-.1.6-.1.8h4.7c-.1-.7-.3-1.3-.7-1.7zm7.1 8.1L10.9 40H14l2.2 7.2 2.2-7.2h2.9l-3.6 10.6zm7.2-7.6c.3-.7.6-1.3 1.1-1.8.5-.5 1.1-.9 1.7-1.1.7-.3 1.4-.4 2.3-.4.8 0 1.6.1 2.3.4.7.3 1.3.6 1.7 1.1.4.5.8 1.1 1.1 1.8.3.7.4 1.5.4 2.3 0 .8-.1 1.6-.4 2.3-.3.7-.6 1.3-1.1 1.8-.5.5-1.1.9-1.7 1.1-.6.2-1.4.4-2.3.4-.8 0-1.6-.1-2.3-.4-.7-.3-1.2-.6-1.7-1.1-.5-.5-.8-1.1-1.1-1.8-.3-.7-.4-1.4-.4-2.3 0-.8.1-1.6.4-2.3zm2.6 3.6c.1.4.2.8.4 1.1.2.3.5.6.8.8.3.2.7.3 1.2.3s.9-.1 1.2-.3c.3-.2.6-.4.8-.8.2-.3.3-.7.4-1.1.1-.4.1-.8.1-1.2 0-.4 0-.8-.1-1.2-.1-.4-.2-.8-.4-1.1-.2-.3-.5-.6-.8-.8-.3-.2-.7-.3-1.2-.3s-.9.1-1.2.3c-.3.2-.6.5-.8.8-.2.3-.3.7-.4 1.1-.1.4-.1.8-.1 1.2 0 .4 0 .8.1 1.2zM36.3 36v14.6h-2.9V36zm4 14.6L36.7 40h3.1l2.2 7.2 2.2-7.2h2.9l-3.6 10.6zm10.2-2.5c.4.4 1.1.6 1.9.6.6 0 1.1-.1 1.5-.4.4-.3.7-.6.8-.9h2.6c-.4 1.3-1 2.2-1.9 2.7-.8.5-1.9.8-3.1.8-.8 0-1.6-.1-2.3-.4-.7-.3-1.2-.6-1.7-1.1-.5-.5-.8-1.1-1.1-1.8-.3-.7-.4-1.4-.4-2.3 0-.8.1-1.5.4-2.2.3-.7.6-1.3 1.1-1.8.5-.5 1-.9 1.7-1.2.7-.3 1.4-.4 2.2-.4.9 0 1.7.2 2.4.5s1.2.8 1.7 1.4c.4.6.7 1.3.9 2 .2.7.3 1.5.2 2.4h-7.6c0 1 .3 1.7.7 2.1zm3.3-5.6c-.3-.4-.9-.6-1.6-.6-.5 0-.9.1-1.2.2-.3.2-.6.4-.7.6-.1.2-.3.5-.4.7-.1.2-.1.5-.1.7h4.7c-.1-.6-.3-1.2-.7-1.6zm12 6.8c-.3.6-.8 1-1.3 1.2-.6.3-1.2.4-1.9.4-.8 0-1.5-.2-2.1-.5-.6-.3-1.1-.7-1.5-1.3-.4-.5-.7-1.1-.9-1.8-.2-.7-.3-1.4-.3-2.1 0-.7.1-1.4.3-2.1.2-.7.5-1.2.9-1.8.4-.6.9-.9 1.5-1.2.6-.3 1.3-.5 2-.5.6 0 1.2.1 1.8.4.6.3 1 .7 1.3 1.2V36h2.9v14.6h-2.8l.1-1.3zm-.2-5.3c-.1-.4-.2-.8-.4-1.1-.2-.3-.5-.6-.8-.7-.3-.1-.7-.3-1.2-.3s-.9.1-1.2.3c-.3.2-.6.4-.8.8-.2.4-.3.7-.4 1.1-.1.4-.1.8-.1 1.3 0 .4 0 .8.1 1.2.1.4.2.8.5 1.1.2.3.5.6.8.8.3.2.7.3 1.2.3s.9-.1 1.2-.3c.3-.2.6-.4.8-.8.2-.3.3-.7.4-1.1.1-.4.1-.8.1-1.3s-.1-.9-.2-1.3zm7.6 3.5v3.2H70v-3.2z"/></g></svg>