<svg width="200" height="46" xmlns="http://www.w3.org/2000/svg"><g fill="#97C227" fill-rule="evenodd"><path d="M195.223 14.357h-6.772c-3.911 0-6.077 2.442-6.077 7.324v18.625h-10.423V20.847c0-4.985 1.25-8.688 3.75-11.109 2.499-2.42 5.74-3.631 9.724-3.631H200l-4.777 8.25zM50.871 20.045c.243-4.736 2.599-7.105 7.07-7.105 4.472 0 6.808 2.37 7.01 7.105h-14.08zm20.075-9.618c-3.108-2.88-7.438-4.32-12.99-4.32-5.551 0-9.891 1.48-13.02 4.44-3.129 2.96-4.692 7.195-4.692 12.704 0 5.51 1.554 9.73 4.662 12.66 3.109 2.93 7.45 4.395 13.02 4.395 11.042.02 16.587-5.026 17.132-10.476h-6.957c-1.454.02-2.676.632-3.664 1.836-.99 1.204-2.828 1.806-5.512 1.806-2.684 0-4.637-.562-5.858-1.685-1.222-1.124-1.934-2.921-2.136-5.39l24.679.001v-3.583c0-5.378-1.555-9.508-4.664-12.388zm19.162-1.672c-1.19-1.764-2.761-2.648-4.716-2.648h-8.943L88.16 22.565l-12.55 16.52h8.995c1.855 0 3.417-.883 4.686-2.648L100 22.597l.001-.001-9.892-13.84z"/><path d="M108.62 8.735c-1.188-1.751-2.758-2.628-4.71-2.628h-9.135l11.695 16.33-17.446 22.754h9.188c1.852 0 3.412-.875 4.68-2.626l15.4-20.097-9.672-13.733zM35.366 20.847c0-4.985-1.25-8.688-3.749-11.109-2.499-2.42-5.74-3.631-9.724-3.631H0v34.199h10.632V13.523h8.235c3.911 0 5.868 2.441 5.868 7.324v19.459h10.63V20.847zm85.139 6.023l-5.87 7.442 1.788 2.234c1.262 1.692 3.02 2.539 4.863 2.539h9.202l-9.983-12.214zM134.146 0h-9.092c-1.94 0-3.606.817-4.786 2.638l-5.634 8.126 5.905 8.778L134.146 0zm22.296 30.752c-2.93 1.805-5.971 2.708-9.126 2.708-1.578 0-2.796-.35-3.656-1.053-.86-.702-1.291-1.595-1.291-2.678 0-1.084.415-1.966 1.245-2.648.829-.682 1.96-1.024 3.395-1.024h9.433v4.695zm6.206-21.44c-2.95-2.137-5.876-3.205-12.16-3.205-11.203 0-16.83 5.023-17.384 10.472h7.06c1.476-.02 2.716-.633 3.719-1.836 1.005-1.204 2.87-1.806 5.593-1.806 2.724 0 3.968.562 5.207 1.686.697.631 1.225 1.483 1.593 2.542.107.614.166 1.296.166 2.062h-10.171c-4.28 0-7.779.903-10.492 2.708-2.715 1.805-4.072 4.393-4.072 7.764 0 3.37 1.357 5.978 4.072 7.823 2.713 1.847 6.186 2.774 10.416 2.784 4.23.01 7.963-1.118 11.2-3.385 0 0 1.01 1.623 3.231 2.241 1.758.49 4.573.527 4.573.527h1.874V19.227c0-4.473-1.474-7.779-4.425-9.915z"/></g></svg>