<svg width="71" height="56" fill="none" xmlns="http://www.w3.org/2000/svg"><path d="M32.184 42.645c0 3.354-1.362 6.289-4.088 8.804-2.673 2.516-5.843 3.774-9.512 3.774-5.765 0-10.194-1.913-13.286-5.74C2.206 45.659.66 40.366.66 33.605c0-6.29 2.647-12.63 7.94-19.024C13.946 8.186 20.366 3.338 27.86.036l3.46 5.582C25.396 8.5 20.758 11.854 17.404 15.68c-3.354 3.826-5.294 8.464-5.818 13.915h4.403c3.25 0 5.896.367 7.94 1.1 2.044.734 3.695 1.756 4.952 3.066 1.206 1.258 2.044 2.647 2.516 4.167.524 1.52.786 3.092.786 4.717zm38.756 0c0 3.354-1.362 6.289-4.087 8.804-2.673 2.516-5.844 3.774-9.513 3.774-5.765 0-10.193-1.913-13.285-5.74-3.092-3.825-4.639-9.118-4.639-15.879 0-6.29 2.647-12.63 7.94-19.024C52.702 8.186 59.122 3.338 66.616.036l3.46 5.582C64.154 8.5 59.516 11.854 56.16 15.68c-3.354 3.826-5.293 8.464-5.817 13.915h4.402c3.25 0 5.896.367 7.94 1.1 2.044.734 3.695 1.756 4.953 3.066 1.205 1.258 2.044 2.647 2.515 4.167.524 1.52.786 3.092.786 4.717z" fill="#97C227"/></svg>