<svg width="71" height="56" viewBox="0 0 71 56" fill="none" xmlns="http://www.w3.org/2000/svg">
<path d="M32.1841 42.6445C32.1841 45.9987 30.8215 48.9336 28.0962 51.4492C25.4233 53.9648 22.2526 55.2227 18.584 55.2227C12.819 55.2227 8.39046 53.3097 5.29834 49.4839C2.20622 45.658 0.660156 40.3647 0.660156 33.604C0.660156 27.3149 3.3068 20.9735 8.6001 14.5796C13.9458 8.18571 20.3659 3.33789 27.8604 0.0361328L31.3193 5.61768C25.3971 8.50016 20.759 11.8543 17.4048 15.6802C14.0506 19.506 12.1115 24.1442 11.5874 29.5947H15.9897C19.2391 29.5947 21.8857 29.9616 23.9297 30.6953C25.9736 31.429 27.6245 32.451 28.8823 33.7612C30.0877 35.019 30.9263 36.4079 31.3979 37.9277C31.922 39.4476 32.1841 41.0199 32.1841 42.6445ZM70.9404 42.6445C70.9404 45.9987 69.5778 48.9336 66.8525 51.4492C64.1797 53.9648 61.009 55.2227 57.3403 55.2227C51.5754 55.2227 47.1468 53.3097 44.0547 49.4839C40.9626 45.658 39.4165 40.3647 39.4165 33.604C39.4165 27.3149 42.0632 20.9735 47.3564 14.5796C52.7021 8.18571 59.1222 3.33789 66.6167 0.0361328L70.0757 5.61768C64.1535 8.50016 59.5153 11.8543 56.1611 15.6802C52.807 19.506 50.8678 24.1442 50.3438 29.5947H54.7461C57.9954 29.5947 60.6421 29.9616 62.686 30.6953C64.73 31.429 66.3809 32.451 67.6387 33.7612C68.8441 35.019 69.6826 36.4079 70.1543 37.9277C70.6784 39.4476 70.9404 41.0199 70.9404 42.6445Z" fill="#97C227"/>
</svg>
