<svg width="30" height="30" fill="none" xmlns="http://www.w3.org/2000/svg"><path fill-rule="evenodd" clip-rule="evenodd" d="M0 15C0 6.717 6.716 0 14.999 0 23.286 0 30 6.717 30 15c0 8.284-6.714 15-15.001 15C6.716 30 0 23.284 0 15zm7.69 7.169h3.216v-9.671H7.69v9.671zm1.609-10.991h-.021c-1.081 0-1.777-.746-1.777-1.674 0-.95.72-1.671 1.816-1.671 1.104 0 1.779.722 1.799 1.671 0 .928-.695 1.674-1.817 1.674zm9.988 10.991h3.215v-5.546c0-2.973-1.587-4.354-3.704-4.354-1.707 0-2.466.937-2.896 1.596v-1.367h-3.213c.04.905 0 9.671 0 9.671h3.213v-5.401c0-.291.02-.577.102-.782.234-.578.764-1.18 1.653-1.18 1.165 0 1.63.889 1.63 2.188v5.175z" fill="#ABA7A5"/></svg>