<svg width="30" height="30" fill="none" xmlns="http://www.w3.org/2000/svg"><path fill-rule="evenodd" clip-rule="evenodd" d="M0 15C0 6.718 6.718 0 15.003 0 23.285 0 30 6.718 30 15c0 8.284-6.715 15-14.997 15C6.718 30 0 23.284 0 15zm20.976-2.66c0-.134-.004-.265-.011-.399a6.18 6.18 0 001.534-1.589 6.095 6.095 0 01-1.767.481 3.088 3.088 0 001.354-1.701 6.245 6.245 0 01-1.954.746 3.078 3.078 0 00-5.245 2.807 8.74 8.74 0 01-6.344-3.216 3.05 3.05 0 00-.414 1.546c0 1.068.541 2.011 1.368 2.563a3.137 3.137 0 01-1.397-.385v.038a3.085 3.085 0 002.472 3.018 3.103 3.103 0 01-1.389.054 3.078 3.078 0 002.873 2.136 6.167 6.167 0 01-4.554 1.273 8.706 8.706 0 004.716 1.384c5.661 0 8.758-4.691 8.758-8.756z" fill="#ABA7A5"/></svg>